<svg width="52" height="71" viewBox="0 0 52 71" fill="none" xmlns="http://www.w3.org/2000/svg">
<mask id="mask0_1_60" style="mask-type:luminance" maskUnits="userSpaceOnUse" x="0" y="0" width="52" height="71">
<path d="M51.0895 0H0.910583V70.0866H51.0895V0Z" fill="white"/>
</mask>
<g mask="url(#mask0_1_60)">
<path d="M42.6851 32.5013C43.6003 32.9428 44.5624 33.34 45.4529 33.8507C47.1503 34.7156 48.5747 36.0341 49.568 37.6598C50.5613 39.2854 51.0847 41.1545 51.0799 43.0595C51.4296 46.7819 50.4451 50.5073 48.3022 53.5709C47.0411 55.0773 45.4922 56.317 43.7462 57.2175C42.0002 58.118 40.0922 58.6613 38.1337 58.8155C36.4055 59.0095 34.6676 59.1043 32.9286 59.0992C32.0405 59.1189 31.6951 59.4544 31.6951 60.3475C31.7247 63.0906 31.6581 65.8338 31.7222 68.5745C31.7494 69.7068 31.404 70.1582 30.2421 70.0744C29.0689 70.0062 27.8927 70.0062 26.7194 70.0744C25.6636 70.1212 25.2393 69.7216 25.259 68.6362C25.3083 65.9818 25.2269 63.325 25.296 60.6706C25.3281 59.4544 24.8668 59.0844 23.6975 59.0992C20.0564 59.1461 20.5695 58.9315 20.5423 62.131C20.5226 64.3512 20.5078 66.5714 20.5423 68.7916C20.5596 69.7512 20.1994 70.1237 19.2398 70.0818C17.9792 70.025 16.7137 70.0226 15.4532 70.0645C14.5305 70.0941 14.2419 69.6945 14.2542 68.8163C14.2888 66.1619 14.2715 63.5051 14.2542 60.8482C14.2542 59.1461 14.2271 59.1214 12.4756 59.1214C9.34268 59.1214 6.20727 59.0573 3.07433 59.1485C1.71261 59.188 1.29571 58.6897 1.39685 57.4094C1.48071 56.2362 1.49389 55.059 1.43632 53.8842C1.38945 52.7791 1.77675 52.2733 2.94112 52.3523C4.02408 52.4263 5.11691 52.3893 6.20481 52.377C6.59772 52.4344 6.99852 52.4027 7.37752 52.2841C7.75651 52.1656 8.10399 51.9634 8.3942 51.6924C8.68442 51.4213 8.90994 51.0885 9.05405 50.7185C9.19817 50.3485 9.25719 49.9508 9.22674 49.5548C9.29581 48.7334 9.27608 47.902 9.27608 47.0756C9.27608 38.1948 9.27114 29.3141 9.26128 20.4333C9.26128 18.0971 8.63222 17.3719 6.32568 17.1474C4.94226 17.0362 3.55371 17.0025 2.16652 17.0463C1.27598 17.0611 0.905943 16.7206 0.933078 15.8128C0.967615 14.4708 0.977482 13.119 0.910876 11.7721C0.864006 10.7853 1.28338 10.5016 2.21832 10.5115C5.7435 10.5485 9.26868 10.4868 12.7939 10.546C13.9434 10.5658 14.3209 10.1809 14.2888 9.04122C14.2148 6.5176 14.2888 3.99151 14.2296 1.46789C14.2049 0.429328 14.5059 -0.0615818 15.6234 0.00502406C16.8371 0.0765637 18.0606 0.0518948 19.2793 0.0173585C20.1723 -0.00731035 20.5127 0.370123 20.5127 1.2508C20.493 3.86323 20.5596 6.47566 20.5127 9.08562C20.4979 10.1365 20.826 10.5658 21.9312 10.5337C25.8264 10.4375 25.2195 11.0517 25.2689 7.22806C25.2935 5.26935 25.2853 3.31065 25.2442 1.35194C25.2245 0.439195 25.4909 -0.0295123 26.4999 0.0124247C27.8024 0.0666961 29.1123 0.0642293 30.4173 0.0124247C31.404 -0.0245785 31.705 0.407126 31.6951 1.33961C31.6655 3.95204 31.7346 6.56447 31.6951 9.17443C31.6754 10.2204 31.9171 10.7088 33.0938 10.8396C36.6616 11.1396 40.1108 12.2654 43.1686 14.1279C44.3924 14.8854 45.4409 15.8947 46.2447 17.0886C47.0484 18.2825 47.5888 19.6338 47.8301 21.0527C48.0713 22.4716 48.0079 23.9256 47.644 25.3181C47.2801 26.7105 46.624 28.0096 45.7193 29.129C44.8091 30.2737 43.7631 31.3147 42.6925 32.4988M20.5423 44.6063C20.5423 46.5625 20.5571 48.5212 20.5423 50.4775C20.5423 51.3187 20.8285 51.8145 21.7412 51.7849C24.9951 51.6838 28.2686 51.7578 31.5002 51.4445C33.135 51.4162 34.7116 50.8324 35.9705 49.7892C37.2295 48.7459 38.0959 47.3052 38.4272 45.704C38.8784 44.4141 38.8462 43.0044 38.3368 41.7364C37.8273 40.4684 36.8751 39.4283 35.6569 38.8091C34.4484 38.2143 33.1467 37.8313 31.8086 37.6768C28.4314 37.4523 25.0395 37.4745 21.6524 37.3832C20.7742 37.3586 20.5374 37.8248 20.5448 38.6167C20.5645 40.6173 20.5448 42.618 20.5448 44.6186M20.5448 24.1262C20.5448 25.9986 20.5596 27.8709 20.5448 29.7433C20.5448 30.5524 20.8359 30.9447 21.6894 30.9323C24.2575 30.9003 26.8304 30.9891 29.3935 30.8731C30.8969 30.6858 32.2978 30.0119 33.3823 28.954C34.4669 27.8962 35.1756 26.5126 35.4004 25.0143C35.6656 23.5367 35.3525 22.0137 34.5259 20.7606C33.6994 19.5074 32.4226 18.6201 30.96 18.2822C27.8305 17.513 24.593 17.2819 21.386 17.5988C21.0974 17.5988 20.6114 18.3389 20.5917 18.7607C20.5029 20.5418 20.5547 22.3303 20.5547 24.1139" fill="white"/>
</g>
</svg>
