<svg width="74" height="70" viewBox="0 0 74 70" fill="none" xmlns="http://www.w3.org/2000/svg">
<path d="M36.7433 14.6742C43.7525 14.6742 49.4345 11.3892 49.4345 7.33708C49.4345 3.28492 43.7525 0 36.7433 0C29.7342 0 24.0522 3.28492 24.0522 7.33708C24.0522 11.3892 29.7342 14.6742 36.7433 14.6742Z" fill="white"/>
<path d="M36.7433 70C43.7525 70 49.4345 66.7151 49.4345 62.6629C49.4345 58.6108 43.7525 55.3258 36.7433 55.3258C29.7342 55.3258 24.0522 58.6108 24.0522 62.6629C24.0522 66.7151 29.7342 70 36.7433 70Z" fill="white"/>
<path d="M19.0944 24.887C22.599 18.8171 22.5952 12.254 19.0861 10.2279C15.5769 8.20187 9.89116 11.48 6.3866 17.55C2.88203 23.6199 2.88575 30.183 6.39492 32.209C9.90409 34.2351 15.5898 30.9569 19.0944 24.887Z" fill="white"/>
<path d="M66.9585 52.4237C70.4631 46.3538 70.4594 39.7907 66.9502 37.7646C63.4411 35.7385 57.7553 39.0167 54.2507 45.0866C50.7462 51.1565 50.7499 57.7196 54.2591 59.7457C57.7682 61.7718 63.454 58.4936 66.9585 52.4237Z" fill="white"/>
<path d="M19.0451 59.7838C22.5542 57.7578 22.558 51.1947 19.0534 45.1247C15.5488 39.0548 9.86308 35.7767 6.35391 37.8027C2.84474 39.8288 2.84101 46.3919 6.34558 52.4618C9.85015 58.5317 15.5359 61.8099 19.0451 59.7838Z" fill="white"/>
<path d="M67.0654 32.1671C70.5746 30.141 70.5783 23.5779 67.0737 17.508C63.5691 11.4381 57.8834 8.15994 54.3742 10.186C50.8651 12.2121 50.8613 18.7752 54.3659 24.8451C57.8705 30.915 63.5562 34.1932 67.0654 32.1671Z" fill="white"/>
</svg>
