<svg width="45" height="71" viewBox="0 0 45 71" fill="none" xmlns="http://www.w3.org/2000/svg">
			<mask
				id="mask0_1_20"
				style="mask-type:luminance"
				maskUnits="userSpaceOnUse"
				x="0"
				y="0"
				width="45"
				height="71"
			>
				<path d="M44.0424 0.111145H0.333496V70.1289H44.0424V0.111145Z" fill="white" />
			</mask>
			<g mask="url(#mask0_1_20)">
				<path
					d="M43.9622 36.2622H44.0424V36.3315C42.9138 36.9898 41.7851 37.6425 40.6601 38.3062C36.9843 40.4735 33.3097 42.6433 29.6363 44.8155C27.2647 46.217 24.8944 47.621 22.5253 49.0274C22.4359 49.0803 22.3429 49.1222 22.2499 49.1678C22.157 49.2134 22.1041 49.1897 22.0567 49.104C21.976 48.9258 21.9427 48.7299 21.96 48.5351C21.96 41.3524 21.96 34.1703 21.96 26.9888C21.94 26.8407 21.9531 26.69 21.9983 26.5475C22.1077 26.274 22.3047 26.2759 22.5344 26.3761C23.1252 26.6296 23.7068 26.9031 24.2939 27.1675C26.9815 28.383 29.6685 29.6034 32.3549 30.8287C34.3411 31.7319 36.3261 32.6375 38.3099 33.5455C39.8451 34.2456 41.3822 34.9476 42.9265 35.6295C43.3068 35.7772 43.6566 35.9935 43.9585 36.2677"
					fill="white"
					fill-opacity="0.28"
				/>
				<path
					d="M22.1845 52.208L43.8329 39.4173L43.8894 39.4775C43.5722 39.9296 43.2586 40.3891 42.9395 40.834C40.935 43.6614 38.9294 46.4882 36.9225 49.3144C34.8755 52.1964 32.8273 55.0773 30.7779 57.957C28.7831 60.7649 26.7902 63.5734 24.7991 66.3826C24.009 67.496 23.2189 68.6095 22.4288 69.7229C22.3376 69.8524 22.2592 69.9928 22.1754 70.1277H22.1061V70.0566C21.9825 69.7719 21.9204 69.4644 21.9237 69.154C21.9237 63.7327 21.9237 58.3113 21.9237 52.8899C21.9237 52.6492 21.8107 52.3429 22.1644 52.2098"
					fill="white"
					fill-opacity="0.68"
				/>
				<path
					d="M43.9623 36.2596C42.9887 35.8256 42.0114 35.3971 41.045 34.9577C38.8692 33.9756 36.6951 32.9903 34.5229 32.0021C32.8418 31.2363 31.1644 30.4596 29.4833 29.6956C27.3828 28.7414 25.2811 27.7908 23.1782 26.8439C22.9266 26.7308 22.6731 26.6214 22.427 26.5011C22.401 26.483 22.3713 26.471 22.34 26.466C22.3087 26.4611 22.2768 26.4634 22.2465 26.4727C22.2163 26.482 22.1885 26.4982 22.1655 26.5198C22.1424 26.5415 22.1246 26.5681 22.1133 26.5977C22.0222 26.5485 22.0058 26.4537 21.9802 26.3662C21.9439 26.174 21.9317 25.978 21.9438 25.7827C21.9438 17.5753 21.9438 9.3703 21.9438 1.16773C21.9374 0.809259 21.9993 0.452849 22.1261 0.117493C22.292 0.117493 22.3084 0.267006 22.3668 0.361819C24.8647 4.49471 27.3597 8.63367 29.8516 12.7787C32.6279 17.3905 35.403 22.0036 38.1769 26.6178C40.0537 29.7357 41.933 32.8518 43.8146 35.966C43.873 36.0645 43.924 36.1684 43.9787 36.2687"
					fill="white"
					fill-opacity="0.68"
				/>
				<path
					d="M22.1099 0.111237C22.1099 0.306333 22.1191 0.50143 22.1191 0.696526C22.1191 9.06319 22.1191 17.4305 22.1191 25.7984C22.1191 25.9935 22.1081 26.1885 22.1045 26.3836C22.0106 26.5407 21.8687 26.6635 21.6997 26.7337C18.9647 27.9955 16.2297 29.2317 13.4947 30.4734C10.1379 31.9959 6.79031 33.5366 3.42626 35.0427C2.56747 35.4274 1.71597 35.8322 0.855362 36.2114C0.705848 36.277 0.543572 36.3937 0.397705 36.195C0.837128 35.3344 1.36954 34.5303 1.86731 33.7043C4.54153 29.2578 7.2194 24.8131 9.90092 20.3703C12.4767 16.083 15.0537 11.7945 17.6318 7.50485C19.1148 5.03727 20.6075 2.57274 22.1099 0.111237Z"
					fill="white"
					fill-opacity="0.98"
				/>
				<path
					d="M0.387501 36.1948C1.03611 35.9671 1.66793 35.6941 2.2783 35.3779C4.43591 34.4055 6.59048 33.433 8.74201 32.4606C10.414 31.7003 12.0824 30.9308 13.7544 30.1705C15.8755 29.2053 17.9985 28.2432 20.1233 27.2841L22.1016 26.3907C22.1016 26.4618 22.1016 26.5348 22.1016 26.6059C22.1125 26.7536 22.1307 26.9031 22.1307 27.0508C22.1307 34.208 22.1307 41.3651 22.1307 48.5223C22.1307 48.7411 22.0651 48.9782 22.242 49.1696C22.0724 49.3246 21.9612 49.1441 21.8536 49.0821C19.8941 47.9322 17.9371 46.7774 15.9825 45.6178L8.24607 41.0412C5.67638 39.523 3.10791 38.0035 0.540661 36.4829C0.458611 36.4336 0.216107 36.4209 0.376561 36.2057"
					fill="white"
					fill-opacity="0.92"
				/>
				<path
					d="M22.1824 52.2085C22.11 52.3811 22.0879 52.5708 22.1186 52.7555C22.1186 58.4102 22.1186 64.0626 22.1186 69.7125C22.1186 69.8273 22.1186 69.9422 22.1095 70.0571L18.4628 64.9189C16.2444 61.8022 14.0285 58.6843 11.8149 55.5652C10.0876 53.1341 8.36155 50.6981 6.63668 48.2573C4.61035 45.4007 2.58281 42.5442 0.554044 39.6876C0.504814 39.6184 0.419118 39.56 0.451938 39.4232L3.03195 40.9476C6.18632 42.8098 9.34068 44.672 12.495 46.5342C15.4209 48.264 18.3455 49.9949 21.2689 51.7271C21.5501 51.9263 21.8567 52.087 22.1806 52.2048"
					fill="white"
					fill-opacity="0.98"
				/>
			</g>
		</svg>