<svg width="50" height="41" viewBox="0 0 50 41" fill="none" xmlns="http://www.w3.org/2000/svg">
<mask id="mask0_1_6" style="mask-type:luminance" maskUnits="userSpaceOnUse" x="0" y="0" width="50" height="41">
<path d="M49.2725 0H0V40.0696H49.2725V0Z" fill="white"/>
</mask>
<g mask="url(#mask0_1_6)">
<path d="M28.0411 31.5811C27.9162 31.5797 27.7936 31.5481 27.6837 31.489C27.5737 31.4299 27.4797 31.345 27.4096 31.2417C26.8408 30.5254 26.3213 29.7712 25.8548 28.9844C25.7315 28.8 25.6577 28.5869 25.6406 28.3658C25.6235 28.1446 25.6635 27.9228 25.7569 27.7216C26.7528 25.3642 27.3651 22.8627 27.5706 20.3119C27.84 18.495 27.6778 16.6401 27.0971 14.8975C26.9076 14.3947 26.6563 13.9175 26.3489 13.4768C26.1867 13.1629 25.9421 12.8991 25.6413 12.7137C25.3405 12.5284 24.9949 12.4284 24.6415 12.4247C24.2882 12.421 23.9406 12.5136 23.6359 12.6925C23.3313 12.8715 23.0811 13.1301 22.9124 13.4405C22.0896 14.5748 21.634 15.9338 21.6069 17.3348C21.3682 21.9337 22.5094 26.4989 24.884 30.4445C26.0411 32.4924 27.7701 34.1584 29.8595 35.2386C31.2183 35.9346 32.7495 36.2225 34.2683 36.0673C35.7871 35.9121 37.2284 35.3205 38.4184 34.364C40.7835 32.5417 42.5721 30.075 43.5691 27.2606C44.9776 23.6958 45.5432 19.8536 45.2218 16.0341C45.0394 11.7495 43.5975 7.61384 41.0766 4.14453C40.5965 3.55935 40.0821 3.00324 39.536 2.47918C39.3023 2.23608 38.9756 2.04034 39.0466 1.59993C39.1682 1.23371 39.5344 1.15479 39.8359 1.00956C40.4341 0.725424 41.0387 0.457072 41.648 0.195035C42.4184 -0.136458 42.6409 -0.104887 43.2266 0.528106C44.7428 2.1831 45.9701 4.08116 46.8572 6.14296C48.7879 10.5921 49.5852 15.4506 49.1777 20.2835C48.9232 24.6508 47.5907 28.8869 45.2992 32.6135C43.9295 34.895 42.0389 36.8197 39.7822 38.2299C37.6068 39.5787 35.0608 40.2054 32.5079 40.0206C29.955 39.8357 27.5259 38.8488 25.5675 37.2007C22.2702 34.4173 19.906 30.6895 18.794 26.5203C17.8569 23.4686 17.46 20.2768 17.6211 17.0885C17.6796 14.8642 18.4368 12.7148 19.7853 10.9449C20.3062 10.1857 21 9.56094 21.8094 9.12212C22.6189 8.6833 23.521 8.44291 24.4415 8.42072C25.362 8.39853 26.2746 8.59517 27.1043 8.99447C27.9339 9.39377 28.657 9.98433 29.2139 10.7176C30.6885 12.5135 31.5247 14.7484 31.5912 17.0712C31.8117 21.6611 30.8896 26.234 28.9077 30.3798C28.7025 30.8218 28.5746 31.349 28.0395 31.5874" fill="#FAFAFF"/>
<path d="M3.52963 17.4786C4.06633 17.7817 3.95268 18.2678 3.96373 18.6862C4.00188 21.2757 4.44886 23.843 5.28812 26.2931C6.12992 28.9158 7.57199 31.3059 9.49966 33.2734C11.0767 34.9441 13.229 35.9539 15.5218 36.099C16.8521 36.1556 18.1735 35.8582 19.3513 35.2371C20.7609 34.5126 20.772 34.5315 21.7823 35.7107C22.0301 35.9964 22.2763 36.2837 22.5115 36.5789C23.124 37.3476 23.0893 37.6444 22.2937 38.1685C20.8347 39.1186 19.1806 39.7283 17.4539 39.9522C15.5241 40.221 13.5581 40.0287 11.717 39.391C9.87588 38.7533 8.21207 37.6885 6.86192 36.2837C3.79542 33.2378 1.68487 29.3628 0.789291 25.1345C0.369457 23.3902 0.105331 21.6121 2.2279e-05 19.8211C-0.0528409 19.5571 -0.0024148 19.2829 0.140907 19.055C0.284228 18.8271 0.509521 18.6629 0.770348 18.5962C1.66424 18.17 2.58427 17.8009 3.5249 17.4912" fill="#FAFAFF"/>
</g>
</svg>
