<svg width="52" height="70" viewBox="0 0 52 70" fill="none" xmlns="http://www.w3.org/2000/svg">
<mask id="mask0_1_66" style="mask-type:luminance" maskUnits="userSpaceOnUse" x="0" y="0" width="52" height="70">
<path d="M51.685 0H0V70H51.685V0Z" fill="white"/>
</mask>
<g mask="url(#mask0_1_66)">
<path d="M25.7015 63.164C26.0307 63.594 26.4371 63.959 26.8999 64.2403C27.8664 64.8126 28.9286 65.2048 30.0351 65.398C31.5048 65.7302 33.0191 65.8184 34.5174 65.6592C36.0114 65.5362 37.4529 65.0505 38.7168 64.2444C39.9807 63.4383 41.0289 62.336 41.7705 61.0332C42.5195 59.7128 43.0505 58.2802 43.3429 56.7906C43.751 54.7658 43.908 52.6985 43.8103 50.6353C43.7721 48.9794 43.5413 47.3336 43.1223 45.7312C42.8582 44.7733 42.5027 43.843 42.0605 42.9531C41.5144 41.8177 40.7376 40.8087 39.7798 39.9903C38.8219 39.1719 37.7039 38.5622 36.4972 38.2C35.3317 37.8189 34.1037 37.666 32.8803 37.7494C32.1287 37.8054 31.3936 37.9979 30.711 38.3174C29.6444 38.7968 28.5969 39.3218 27.5399 39.8275L25.4713 40.8174C25.3587 40.8726 25.2317 40.9157 25.0854 40.9852C25.0516 40.8839 25.0275 40.7795 25.0135 40.6736C25.0135 40.2661 25.0135 39.8587 25.0135 39.4512C25.0258 39.247 25.1109 39.054 25.2532 38.9071L28.5083 34.5638L40.4761 18.6003C40.5648 18.4828 40.6463 18.3606 40.7638 18.1928H19.0859C19.0859 18.351 19.0572 18.4876 19.0572 18.6219C19.0572 25.7711 19.0572 32.9195 19.0572 40.0672C19.0257 41.1906 19.2172 42.3092 19.6204 43.3582C19.7507 43.6757 19.9054 43.9826 20.083 44.2762C20.4265 44.8472 20.9098 45.3214 21.4872 45.6539C22.0647 45.9865 22.7173 46.1665 23.3836 46.177C24.8978 46.2678 26.3906 45.7842 27.5639 44.8227C28.755 43.9211 29.7878 42.8275 30.62 41.5869C30.7391 41.3883 30.9262 41.2396 31.1465 41.1682C31.3668 41.0969 31.6054 41.1076 31.8184 41.1986C32.2353 41.3628 32.5836 41.6646 32.8054 42.0539C33.0273 42.4432 33.1096 42.8966 33.0385 43.339C32.9302 44.0052 32.7089 44.6481 32.3841 45.2398C31.7776 46.4234 30.9345 47.4698 29.907 48.3142C28.8796 49.1586 27.6896 49.783 26.4109 50.1487C25.6038 50.3873 24.767 50.5108 23.9253 50.5154C22.1793 50.5527 20.4343 50.3992 18.7216 50.0576C17.5683 49.8339 16.4577 49.4294 15.4306 48.8591C13.7837 47.8766 12.5386 46.3419 11.9167 44.5279C11.4995 43.444 11.2631 42.2991 11.2168 41.1386C11.1856 40.4004 11.1617 39.6621 11.1617 38.9239C11.1617 32.2125 11.1617 25.501 11.1617 18.7896C11.1617 18.6027 11.1473 18.4157 11.1377 18.1856H0.0974303C-0.0297488 16.7897 -0.0353628 15.3854 0.0806518 13.9886H11.2C11.2144 13.8328 11.236 13.7225 11.236 13.6147C11.236 10.7479 11.236 7.8812 11.236 5.01447C11.2389 4.92071 11.2216 4.82742 11.1852 4.74096C11.1488 4.65451 11.0942 4.57693 11.025 4.51351C10.3251 3.82559 9.63962 3.12329 8.93971 2.43537C8.86014 2.36438 8.79735 2.27658 8.75589 2.17833C8.71443 2.08008 8.69535 1.97384 8.70002 1.8673C8.7144 1.27047 8.70002 0.668836 8.70002 0.0384425C8.8678 0.0216639 8.98286 9.15527e-05 9.1075 9.15527e-05C11.3846 9.15527e-05 13.6617 9.15527e-05 15.9459 9.15527e-05C16.1218 0.00480325 16.2945 0.0481756 16.4517 0.127129C17.2163 0.505844 17.969 0.906132 18.736 1.28245C18.8372 1.31996 18.9228 1.39055 18.9789 1.48277C19.035 1.57499 19.0584 1.68346 19.0452 1.7906C19.0452 2.00632 19.0452 2.22444 19.0452 2.44017C19.0452 6.07232 19.0452 9.70367 19.0452 13.3342C19.0452 13.5092 19.0644 13.6818 19.0739 13.8831C19.2297 13.8831 19.3544 13.9071 19.4766 13.9047C22.917 13.9047 26.3574 13.9007 29.7978 13.8927C35.7102 13.8767 41.6227 13.8552 47.5351 13.828C47.6795 13.8204 47.8236 13.8456 47.9569 13.9017C48.0901 13.9577 48.209 14.0431 48.3045 14.1516C49.0404 14.9114 49.7954 15.6521 50.5433 16.3999C50.6415 16.4982 50.735 16.5988 50.8093 16.6803C50.8093 16.7307 50.8093 16.7427 50.8093 16.757C50.811 16.769 50.811 16.7811 50.8093 16.793C50.7973 16.8155 50.7837 16.8372 50.7686 16.8577L50.7446 16.8865L50.6391 16.9967L33.4124 34.3146C33.4124 34.3146 33.4124 34.3385 33.3932 34.3769C33.6569 34.293 33.9038 34.2067 34.153 34.1372C35.1491 33.8162 36.195 33.6782 37.2403 33.7297C38.2932 33.832 39.3289 34.0672 40.3227 34.4296C41.8721 34.9811 43.3496 35.7166 44.7235 36.6204C46.0807 37.5173 47.2451 38.6761 48.1487 40.0289C49.4181 41.837 50.3563 43.8562 50.9196 45.9924C51.3246 47.6114 51.5718 49.2658 51.6578 50.9325C51.8463 54.6928 51.0183 58.4345 49.2609 61.7642C47.7807 64.6215 45.3518 66.8742 42.3913 68.1353C40.436 69.0096 38.3601 69.5841 36.2336 69.8395C34.7397 70.0145 33.233 70.053 31.7321 69.9545C30.3083 69.8745 28.8955 69.657 27.5135 69.305C24.7387 68.6018 22.3377 66.8645 20.8021 64.4488C19.9231 63.1763 19.334 61.7264 19.0763 60.2014C18.8794 59.2115 18.8884 58.1916 19.1027 57.2053C19.275 56.4356 19.6551 55.7279 20.2015 55.159C20.7479 54.5902 21.4398 54.1821 22.2019 53.979C23.1352 53.691 24.1287 53.6596 25.0783 53.8879C25.8466 54.0382 26.559 54.3963 27.138 54.9233C27.717 55.4503 28.1403 56.126 28.362 56.8769C28.7425 58.023 28.7374 59.2622 28.3477 60.4052C28.1645 60.971 27.8655 61.4926 27.4697 61.9366C27.074 62.3806 26.5902 62.7374 26.049 62.9843L25.7758 63.1161C25.7535 63.1327 25.7326 63.1511 25.7134 63.1712" fill="#FAFAFF"/>
</g>
</svg>
